<svg width="45" height="45" viewBox="0 0 45 45" fill="none" xmlns="http://www.w3.org/2000/svg">
<g clip-path="url(#clip0)">
<path d="M22.4996 8.61643C24.7589 8.61643 26.5905 6.78483 26.5905 4.52551C26.5905 2.26619 24.7589 0.434593 22.4996 0.434593C20.2403 0.434593 18.4087 2.26619 18.4087 4.52551C18.4087 6.78483 20.2402 8.61643 22.4996 8.61643ZM22.4996 2.48005C23.6293 2.48005 24.5451 3.3958 24.5451 4.52551C24.5451 5.65522 23.6293 6.57097 22.4996 6.57097C21.3699 6.57097 20.4541 5.65522 20.4541 4.52551C20.4541 3.3958 21.3699 2.48005 22.4996 2.48005Z" fill="#404B68"/>
<path d="M23.9859 9.27999C23.9678 9.28028 23.9498 9.28077 23.9318 9.28126H21.0682C17.991 9.19601 15.4273 11.6215 15.3421 14.6987C15.3416 14.7167 15.3412 14.7348 15.3408 14.7529V15.571C15.3408 16.1335 15.9033 16.4404 16.4658 16.4404H28.534C29.0965 16.4404 29.659 16.1335 29.659 15.571V14.7529C29.6036 11.675 27.0637 9.22468 23.9859 9.27999ZM17.4886 14.3948C17.5908 12.8608 19.1761 11.3266 21.0681 11.3266H23.9317C25.8238 11.3266 27.409 12.8607 27.5112 14.3948H17.4886Z" fill="#404B68"/>
<path d="M5.88066 26.4118C6.44551 26.4118 6.90338 25.9539 6.90338 25.3891C6.90015 20.658 9.04447 16.1813 12.7329 13.2186C13.1375 12.8244 13.146 12.177 12.7518 11.7723C12.4089 11.4204 11.8641 11.362 11.4545 11.6334C7.27836 14.977 4.85068 20.0392 4.85793 25.3891C4.85793 25.9539 5.3158 26.4118 5.88066 26.4118Z" fill="#404B68"/>
<path d="M27.484 40.1589C27.476 40.1617 27.4679 40.1647 27.46 40.1677C24.2575 41.2397 20.7931 41.2397 17.5907 40.1677C17.0543 40.0005 16.4835 40.2974 16.3123 40.8325C16.118 41.3326 16.366 41.8956 16.8662 42.0899C16.8858 42.0976 16.9057 42.1046 16.9259 42.1109C20.5579 43.3384 24.4927 43.3384 28.1247 42.1109C28.6668 41.9175 28.96 41.3311 28.7895 40.7813C28.601 40.249 28.0164 39.9703 27.484 40.1589Z" fill="#404B68"/>
<path d="M31.5001 12.6563C35.6422 15.5724 38.1038 20.3237 38.0967 25.3893C38.0967 25.9541 38.5546 26.412 39.1194 26.412C39.6843 26.412 40.1422 25.9541 40.1422 25.3893C40.128 19.6589 37.3473 14.2881 32.6762 10.9688C32.2102 10.644 31.5692 10.7584 31.2443 11.2244C30.9196 11.6904 31.0341 12.3315 31.5001 12.6563Z" fill="#404B68"/>
<path d="M7.15976 36.7416C9.41909 36.7416 11.2507 34.91 11.2507 32.6506C11.2507 30.3913 9.41909 28.5597 7.15976 28.5597C4.90044 28.5597 3.06885 30.3912 3.06885 32.6506C3.06885 34.9101 4.90044 36.7416 7.15976 36.7416ZM7.15976 30.6052C8.28947 30.6052 9.20522 31.5209 9.20522 32.6506C9.20522 33.7804 8.28947 34.6961 7.15976 34.6961C6.03005 34.6961 5.11431 33.7804 5.11431 32.6506C5.11431 31.5209 6.03005 30.6052 7.15976 30.6052Z" fill="#404B68"/>
<path d="M8.64519 37.4048C8.62708 37.4051 8.60907 37.4056 8.59106 37.4061H5.72734C2.65015 37.3208 0.0865243 39.7463 0.00127242 42.8235C0.000783026 42.8415 0.000391513 42.8597 0 42.8777V43.6958C0 44.2583 0.562506 44.5652 1.12501 44.5652H13.1932C13.7557 44.5652 14.3182 44.2583 14.3182 43.6958V42.8777C14.263 39.7998 11.7231 37.3495 8.64519 37.4048ZM2.14784 42.5196C2.25012 40.9856 3.83536 39.4514 5.72734 39.4514H8.59097C10.4831 39.4514 12.0683 40.9855 12.1705 42.5196H2.14784Z" fill="#404B68"/>
<path d="M33.7505 32.6506C33.7505 34.91 35.5821 36.7416 37.8414 36.7416C40.1007 36.7416 41.9323 34.91 41.9323 32.6506C41.9323 30.3913 40.1007 28.5597 37.8414 28.5597C35.5821 28.5597 33.7505 30.3912 33.7505 32.6506ZM39.8869 32.6506C39.8869 33.7804 38.9711 34.6961 37.8414 34.6961C36.7117 34.6961 35.7959 33.7804 35.7959 32.6506C35.7959 31.5209 36.7117 30.6052 37.8414 30.6052C38.9711 30.6052 39.8869 31.5209 39.8869 32.6506Z" fill="#404B68"/>
<path d="M39.3267 37.4048C39.3086 37.4051 39.2906 37.4056 39.2726 37.4061H36.409C33.3318 37.3208 30.7682 39.7463 30.6829 42.8235C30.6824 42.8415 30.682 42.8597 30.6816 42.8777V43.6958C30.6816 44.2583 31.2441 44.5652 31.8067 44.5652H43.8748C44.4374 44.5652 44.9999 44.2583 44.9999 43.6958V42.8777C44.9446 39.7998 42.4046 37.3495 39.3267 37.4048ZM32.8294 42.5196C32.9317 40.9856 34.5169 39.4514 36.4089 39.4514H39.2725C41.1646 39.4514 42.7498 40.9855 42.852 42.5196H32.8294Z" fill="#404B68"/>
</g>
<defs>
<clipPath id="clip0">
<rect width="45" height="45" fill="white"/>
</clipPath>
</defs>
</svg>
