<svg width="45" height="45" viewBox="0 0 45 45" fill="none" xmlns="http://www.w3.org/2000/svg">
<path d="M0.9375 44.0625H44.0625" stroke="#404B68" stroke-miterlimit="10" stroke-linecap="round"/>
<path d="M8.4375 35.625C8.4375 35.3764 8.33873 35.1379 8.16291 34.9621C7.9871 34.7863 7.74864 34.6875 7.5 34.6875H3.75C3.50136 34.6875 3.2629 34.7863 3.08709 34.9621C2.91127 35.1379 2.8125 35.3764 2.8125 35.625V44.0625H8.4375V35.625Z" stroke="#404B68" stroke-miterlimit="10" stroke-linecap="round"/>
<path d="M19.6875 26.25C19.6875 26.0014 19.5887 25.7629 19.4129 25.5871C19.2371 25.4113 18.9986 25.3125 18.75 25.3125H15C14.7514 25.3125 14.5129 25.4113 14.3371 25.5871C14.1613 25.7629 14.0625 26.0014 14.0625 26.25V44.0625H19.6875V26.25Z" stroke="#404B68" stroke-miterlimit="10" stroke-linecap="round"/>
<path d="M30.9375 30C30.9375 29.7514 30.8387 29.5129 30.6629 29.3371C30.4871 29.1613 30.2486 29.0625 30 29.0625H26.25C26.0014 29.0625 25.7629 29.1613 25.5871 29.3371C25.4113 29.5129 25.3125 29.7514 25.3125 30V44.0625H30.9375V30Z" stroke="#404B68" stroke-miterlimit="10" stroke-linecap="round"/>
<path d="M42.1875 16.875C42.1875 16.6264 42.0887 16.3879 41.9129 16.2121C41.7371 16.0363 41.4986 15.9375 41.25 15.9375H37.5C37.2514 15.9375 37.0129 16.0363 36.8371 16.2121C36.6613 16.3879 36.5625 16.6264 36.5625 16.875V44.0625H42.1875V16.875Z" stroke="#404B68" stroke-miterlimit="10" stroke-linecap="round"/>
<path d="M5.625 24.375C7.1783 24.375 8.4375 23.1158 8.4375 21.5625C8.4375 20.0092 7.1783 18.75 5.625 18.75C4.0717 18.75 2.8125 20.0092 2.8125 21.5625C2.8125 23.1158 4.0717 24.375 5.625 24.375Z" stroke="#404B68" stroke-miterlimit="10" stroke-linecap="round"/>
<path d="M16.875 15C18.4283 15 19.6875 13.7408 19.6875 12.1875C19.6875 10.6342 18.4283 9.375 16.875 9.375C15.3217 9.375 14.0625 10.6342 14.0625 12.1875C14.0625 13.7408 15.3217 15 16.875 15Z" stroke="#404B68" stroke-miterlimit="10" stroke-linecap="round"/>
<path d="M28.125 18.75C29.6783 18.75 30.9375 17.4908 30.9375 15.9375C30.9375 14.3842 29.6783 13.125 28.125 13.125C26.5717 13.125 25.3125 14.3842 25.3125 15.9375C25.3125 17.4908 26.5717 18.75 28.125 18.75Z" stroke="#404B68" stroke-miterlimit="10" stroke-linecap="round"/>
<path d="M39.375 6.5625C40.9283 6.5625 42.1875 5.3033 42.1875 3.75C42.1875 2.1967 40.9283 0.9375 39.375 0.9375C37.8217 0.9375 36.5625 2.1967 36.5625 3.75C36.5625 5.3033 37.8217 6.5625 39.375 6.5625Z" stroke="#404B68" stroke-miterlimit="10" stroke-linecap="round"/>
<path d="M7.98926 19.5938L14.7149 13.9875" stroke="#404B68" stroke-miterlimit="10" stroke-linecap="round"/>
<path d="M19.5449 13.0762L25.4568 15.0469" stroke="#404B68" stroke-miterlimit="10" stroke-linecap="round"/>
<path d="M37.1253 5.4375L30.0771 13.6594" stroke="#404B68" stroke-miterlimit="10" stroke-linecap="round"/>
</svg>
