<svg width="56" height="56" viewBox="0 0 56 56" fill="none" xmlns="http://www.w3.org/2000/svg">
<path d="M51.9435 3.70411C51.6177 3.37894 51.0903 3.37894 50.7645 3.70411L40.7029 13.7692L39.4489 12.5158C39.2927 12.3596 39.0804 12.2718 38.8592 12.2718C38.638 12.2718 38.4262 12.3596 38.2695 12.5163L34.9267 15.8614L32.3821 13.3162C32.2259 13.16 32.0136 13.0722 31.7924 13.0722C31.5711 13.0722 31.3594 13.16 31.2026 13.3162L27.6003 16.9186C27.5986 16.9202 27.5969 16.9202 27.5953 16.9219C27.5936 16.9236 27.5936 16.9252 27.5919 16.9269L22.849 21.6704C22.8463 21.6732 22.8429 21.6738 22.8401 21.676C22.8374 21.6782 22.8368 21.6821 22.8346 21.6849L18.0983 26.4212C18.095 26.4245 18.0906 26.4251 18.0878 26.4284C18.085 26.4317 18.0839 26.4356 18.0806 26.4389L13.3471 31.1725C13.3432 31.1763 13.3382 31.1769 13.3343 31.1808C13.3304 31.1847 13.3293 31.1897 13.326 31.1936L9.56578 34.9538C9.40959 35.11 9.32177 35.3223 9.32177 35.5436C9.32177 35.7642 9.40959 35.9766 9.56578 36.1333L12.1109 38.6779L7.60758 43.1802L5.06188 40.6339C4.73616 40.3082 4.20868 40.3082 3.88296 40.6339C3.55724 40.9596 3.55724 41.4871 3.88296 41.8128L10.6986 48.6291C10.6997 48.6302 10.7002 48.6318 10.7013 48.6335C10.7025 48.6352 10.7041 48.6352 10.7058 48.6363L13.948 51.879C14.1108 52.0419 14.3243 52.1231 14.5377 52.1231C14.7511 52.1231 14.9646 52.0419 15.1274 51.879C15.4531 51.5533 15.4531 51.0258 15.1274 50.7001L12.47 48.0438L16.9745 43.5409L19.5213 46.0878C19.6841 46.2506 19.8976 46.3318 20.111 46.3318C20.3244 46.3318 20.5379 46.2506 20.7007 46.0878L42.3354 24.4502C42.6611 24.1244 42.6611 23.597 42.3354 23.2712L39.7913 20.7272L43.1341 17.3782C43.4593 17.0525 43.4587 16.525 43.1335 16.1993L41.8818 14.9487L51.9435 4.88304C52.2692 4.55732 52.2692 4.02927 51.9435 3.70411ZM11.2911 46.8643L8.78595 44.3591L13.2893 39.8563L15.7944 42.3614L11.2911 46.8643ZM20.111 44.3186L13.8846 38.0932C13.8829 38.0915 13.8824 38.0887 13.8807 38.0871C13.879 38.0854 13.8763 38.0848 13.8746 38.0832L11.3344 35.5436L13.9263 32.9517L17.0667 36.0911C17.2296 36.2539 17.443 36.3351 17.6565 36.3351C17.8699 36.3351 18.0833 36.2539 18.2462 36.0911C18.5714 35.7653 18.5714 35.2373 18.2462 34.9121L15.1057 31.7728L18.6797 28.1987L21.818 31.337C21.9808 31.4998 22.1943 31.581 22.4077 31.581C22.6211 31.581 22.8346 31.4998 22.9974 31.337C23.3232 31.0113 23.3232 30.4832 22.9974 30.158L19.8592 27.0198L23.4332 23.4458L26.5748 26.5846C26.7376 26.7474 26.9505 26.8286 27.1639 26.8286C27.3774 26.8286 27.5908 26.7474 27.7537 26.584C28.0788 26.2583 28.0788 25.7303 27.7531 25.4051L24.6121 22.2668L28.1872 18.6917L31.326 21.8311C31.4883 21.9939 31.7023 22.0751 31.9158 22.0751C32.1292 22.0751 32.3426 21.9939 32.5055 21.8311C32.8312 21.5059 32.8312 20.9778 32.5055 20.6521L29.3667 17.5128L31.794 15.0849L34.3347 17.6262C34.3364 17.6278 34.3364 17.6295 34.3381 17.6306L38.0243 21.3164C38.0249 21.3169 38.0255 21.3175 38.026 21.318L40.5678 23.8604L20.111 44.3186ZM38.6124 19.5471L36.1062 17.0403L38.8598 14.2845L40.1098 15.534C40.1109 15.5351 40.1115 15.5373 40.1126 15.5384C40.1137 15.5395 40.1159 15.5401 40.117 15.5412L41.3654 16.7891L38.6124 19.5471Z" fill="#404B68"/>
</svg>
