<svg width="48" height="52" viewBox="0 0 48 52" fill="none" xmlns="http://www.w3.org/2000/svg">
<path d="M44.4641 36.4795C44.3741 33.7043 43.5756 30.3608 42.2168 27.0653C40.858 23.7667 39.0929 20.8898 37.2462 18.9647C35.2605 16.8939 33.361 16.1357 31.8907 16.8222C31.8788 16.8274 31.8664 16.8294 31.8545 16.8351L30.1298 17.6697V13.2867C30.1298 13.2805 30.1308 13.2743 30.1308 13.2681C30.1308 9.8013 24.609 7.1871 17.2863 7.1871C9.9789 7.1871 4.46569 9.79097 4.44282 13.247C4.44282 13.2542 4.44092 13.2609 4.44092 13.2687V21.1035C4.44092 21.1448 4.44616 21.185 4.45235 21.2243C4.44616 21.264 4.44092 21.3037 4.44092 21.345C4.44092 21.4157 4.44664 21.4849 4.4514 21.5546C4.44616 21.5918 4.44092 21.6284 4.44092 21.6671V29.5019C4.44092 29.5438 4.44616 29.584 4.45235 29.6238C4.44616 29.6635 4.44092 29.7038 4.44092 29.7456C4.44092 29.8338 4.44711 29.921 4.45378 30.0077C4.44568 30.0532 4.44092 30.1001 4.44092 30.1481V37.983C4.44092 38.0243 4.44616 38.0645 4.45235 38.1038C4.44616 38.1435 4.44092 38.1832 4.44092 38.2245C4.44092 41.6908 9.96366 44.3045 17.2873 44.3045C21.9396 44.3045 26.1793 43.1546 28.4109 41.3368C30.4081 44.1456 32.5568 45.8013 34.3562 45.8013C34.7664 45.8013 35.1595 45.7156 35.5273 45.5376L42.3092 42.2555C42.3159 42.2524 42.323 42.2503 42.3297 42.2472C43.8042 41.5345 44.5622 39.4859 44.4641 36.4795ZM25.2536 20.0294L25.0478 20.1275C23.6314 20.8134 22.9158 22.7045 22.892 25.295C21.1816 25.7001 19.2645 25.9236 17.2878 25.9236C10.533 25.9236 5.82589 23.5107 5.82589 21.3445C5.82589 21.3032 5.82065 21.263 5.81446 21.2237C5.82065 21.184 5.82589 21.1443 5.82589 21.103V16.1001C7.90692 18.063 12.1528 19.3492 17.2868 19.3492C22.4194 19.3492 26.6638 18.064 28.7458 16.1017V18.3396L25.2536 20.0294ZM5.81446 29.6238C5.82065 29.584 5.82589 29.5438 5.82589 29.5019V24.1765C7.90788 26.1383 12.1538 27.424 17.2878 27.424C19.2687 27.424 21.2083 27.2181 22.9525 26.8268C23.1121 28.7319 23.5833 30.9094 24.3679 33.2103C22.2679 33.9468 19.8919 34.3241 17.2878 34.3241C10.533 34.3241 5.82589 31.9112 5.82589 29.7461C5.82589 29.7038 5.82065 29.6635 5.81446 29.6238ZM17.2868 8.68697C24.0344 8.68697 28.7377 11.0968 28.7463 13.2625C28.7463 13.2645 28.7458 13.2661 28.7458 13.2681V13.2821C28.7258 15.4452 24.0259 17.8493 17.2868 17.8493C10.533 17.8493 5.82684 15.4348 5.82684 13.2681C5.82684 11.1014 10.533 8.68697 17.2868 8.68697ZM17.2878 42.8052C10.533 42.8052 5.82589 40.3912 5.82589 38.225C5.82589 38.1838 5.82065 38.1435 5.81446 38.1043C5.82065 38.0645 5.82589 38.0248 5.82589 37.9835V32.577C7.90788 34.5388 12.1538 35.824 17.2878 35.824C20.0711 35.824 22.618 35.4116 24.8768 34.607C24.9678 34.8418 25.0616 35.0777 25.1593 35.3141C25.8997 37.1092 26.732 38.7221 27.6072 40.1223C25.6557 41.7414 21.6232 42.8052 17.2878 42.8052ZM35.1523 44.0743L34.9565 44.1719C33.1275 45.0514 29.1775 41.3807 26.4232 34.7019C23.6719 28.0212 23.7881 22.3804 25.61 21.4983L30.0412 19.3548C29.7906 20.2514 29.6787 21.3419 29.7201 22.6039C29.8102 25.3786 30.6087 28.7231 31.9679 32.0217C33.3267 35.3187 35.0918 38.1941 36.9385 40.1192C37.7803 40.9961 38.6045 41.6289 39.3892 42.0253L35.1523 44.0743ZM41.768 40.8764C41.767 40.8769 41.7656 40.8769 41.7647 40.8774L41.7599 40.8795C40.848 41.3161 39.4397 40.6457 37.8985 39.0385C36.1771 37.2439 34.5196 34.5347 33.2323 31.4101C31.9441 28.2839 31.188 25.1381 31.1037 22.5512C31.0284 20.2297 31.5086 18.6462 32.4215 18.2054C32.6058 18.1167 32.8093 18.0728 33.0303 18.0728C33.907 18.0728 35.0532 18.7598 36.2862 20.0449C38.0076 21.8395 39.6646 24.5497 40.9524 27.6764C42.2406 30.8 42.9962 33.9453 43.0806 36.5321C43.1563 38.8506 42.6775 40.4336 41.768 40.8764Z" fill="#404B68"/>
</svg>
