<svg width="47" height="47" viewBox="0 0 47 47" fill="none" xmlns="http://www.w3.org/2000/svg">
<path d="M45.5688 19.033C45.4361 18.8567 45.228 18.7531 45.0076 18.7531H41.0226V14.3804C41.0226 13.9922 40.708 13.6776 40.3203 13.6771L19.5011 13.6513L16.1353 10.2856C16.0036 10.1539 15.8245 10.0798 15.6379 10.0798H5.62609C5.2379 10.0798 4.92285 10.3949 4.92285 10.783V36.0997C4.92285 36.4879 5.2379 36.803 5.62609 36.803H40.2232C40.566 36.803 40.851 36.5569 40.9134 36.232C40.9466 36.178 40.9776 36.1223 40.9959 36.0585L45.6842 19.6495C45.7442 19.4376 45.702 19.2093 45.5688 19.033ZM15.3468 11.4863L18.712 14.8515C18.8433 14.9833 19.0219 15.0569 19.2085 15.0573L39.6161 15.0827V18.7531H10.3144C10.0003 18.7531 9.72459 18.9613 9.63832 19.2632L6.32934 30.8442V11.4863H15.3468ZM39.7221 35.3965H6.49155L10.8451 20.1596H44.0756L39.7221 35.3965Z" fill="#404B68"/>
</svg>
