<svg width="43" height="43" viewBox="0 0 43 43" fill="none" xmlns="http://www.w3.org/2000/svg">
<path d="M18.0859 4.7031C17.0111 4.7031 16.0657 5.2703 15.4569 6.06004C14.9603 6.70397 14.6585 7.50585 14.5606 8.37731H2.69187V8.38149H2.6875V9.45047V17.6588H2.69187V38.2967H40.3041V17.6295L40.3126 17.6253V8.38149H40.3041V8.37715H28.4353C28.3382 7.50717 28.0389 6.70846 27.5433 6.06407C26.9358 5.27387 25.9892 4.70294 24.9143 4.70294L18.0859 4.7031ZM18.0859 6.84073H24.9143C25.2247 6.84073 25.5161 6.98447 25.7978 7.35019C25.9761 7.58228 26.0271 8.0023 26.1136 8.37731H16.8866C16.9733 8.00301 17.0237 7.58233 17.2024 7.35019C17.485 6.9835 17.7754 6.84073 18.0859 6.84073ZM4.87272 10.5233H38.1275V16.164L25.4265 20.9946C24.8432 19.8398 23.6356 19.0281 22.2384 19.0281H20.6593C19.2996 19.0281 18.1229 19.7976 17.5225 20.9027L4.87272 16.189V10.5233ZM38.1275 18.4562V36.1673H4.86845V18.4728L17.0957 23.028V24.1594C17.0957 26.0745 18.7018 27.6624 20.6593 27.6624H22.2384C24.196 27.6624 25.8063 26.0745 25.8063 24.1594V23.149L38.1275 18.4562ZM20.6593 21.1699H22.2427C23.0333 21.1699 23.5729 21.6952 23.6041 22.4643L23.6256 22.9987V24.1594C23.6256 24.9552 23.0514 25.5164 22.2385 25.5164H20.6594C19.8465 25.5164 19.2723 24.955 19.2723 24.1594V22.8693L19.315 22.402C19.3816 21.6675 19.8976 21.1704 20.6593 21.1704V21.1699Z" fill="#404B68"/>
</svg>
