<svg width="49" height="49" viewBox="0 0 49 49" fill="none" xmlns="http://www.w3.org/2000/svg">
<path d="M24.4931 3.06177C16.0398 3.06177 9.18751 10.0917 9.1875 18.7032C9.19294 24.2382 12.201 29.1776 16.838 31.9767V35.914H19.1123V36.4087C18.8492 36.4675 18.6137 36.6154 18.4449 36.8277C18.2761 37.04 18.1841 37.304 18.1841 37.5764C18.1841 37.8487 18.2761 38.1129 18.4449 38.3252C18.6137 38.5375 18.8492 38.6852 19.1123 38.744V39.3932C18.8492 39.452 18.6137 39.5997 18.4449 39.812C18.2761 40.0243 18.1841 40.2885 18.1841 40.5608C18.1841 40.8332 18.2761 41.0974 18.4449 41.3097C18.6137 41.522 18.8492 41.6697 19.1123 41.7285V44.4374H20.1894C20.1852 44.4606 20.1754 44.5167 20.1754 44.5167C20.1754 44.5186 20.2441 44.9397 20.2448 44.9415C20.2454 44.9434 20.4006 45.2384 20.4019 45.2401C20.4045 45.2437 20.6971 45.5352 20.7024 45.5386C20.7079 45.5422 20.8571 45.6215 20.9104 45.6464C20.9637 45.6753 20.9913 45.6811 21.0306 45.6985C21.1876 45.7505 21.3059 45.7736 21.4189 45.7915C21.645 45.8263 21.8815 45.853 22.1863 45.8802C22.7958 45.9265 23.6 45.938 24.493 45.938C25.3858 45.938 26.19 45.9265 26.7997 45.8802C27.1045 45.8628 27.359 45.828 27.5855 45.7915C27.6988 45.7742 27.7931 45.7511 27.9507 45.6985C27.9902 45.6869 28.0359 45.6753 28.0894 45.6464C28.1429 45.6174 28.2967 45.5427 28.3021 45.5386C28.3074 45.535 28.5952 45.2436 28.5979 45.2401C28.5993 45.2383 28.7544 44.9432 28.7551 44.9415C28.7558 44.9396 28.8244 44.5185 28.8244 44.5167C28.8244 44.5164 28.8148 44.4646 28.8105 44.4374H29.8922V41.7472C30.1746 41.7068 30.433 41.5647 30.6199 41.3471C30.8069 41.1296 30.9099 40.8512 30.9099 40.5631C30.9099 40.275 30.8069 39.9967 30.6199 39.7791C30.433 39.5616 30.1746 39.4196 29.8922 39.3793V38.7627C30.1713 38.7189 30.4257 38.5758 30.6095 38.3591C30.7932 38.1424 30.8942 37.8665 30.8942 37.5811C30.8942 37.2958 30.7932 37.0198 30.6095 36.8031C30.4257 36.5864 30.1713 36.4433 29.8922 36.3996V35.9139H32.1619V31.958C36.7898 29.1542 39.8109 24.2337 39.8124 18.7032C39.8124 10.0917 32.9463 3.06177 24.493 3.06177H24.4931ZM24.4931 5.46235C31.6537 5.46235 37.455 11.3703 37.455 18.7032C37.4537 23.6655 34.743 28.1908 30.4332 30.4588L29.7861 30.7951V33.5133H19.2002V30.7951L18.5669 30.4588C14.26 28.1923 11.5498 23.6621 11.5451 18.7032C11.5451 11.3703 17.3326 5.46235 24.4931 5.46235ZM24.4747 15.191C24.1632 15.1996 23.8677 15.3319 23.6522 15.5592C23.4367 15.7866 23.3187 16.0907 23.3236 16.4054V26.8952C23.3089 27.0606 23.3285 27.2273 23.381 27.3846C23.4336 27.542 23.518 27.6865 23.6289 27.8091C23.7398 27.9316 23.8747 28.0295 24.0251 28.0964C24.1755 28.1634 24.338 28.198 24.5024 28.198C24.6667 28.198 24.8293 28.1634 24.9797 28.0964C25.13 28.0295 25.265 27.9316 25.3759 27.8091C25.4868 27.6865 25.5712 27.542 25.6237 27.3846C25.6763 27.2273 25.6959 27.0606 25.6812 26.8952V16.4054C25.6837 16.2448 25.6541 16.0854 25.5943 15.9367C25.5345 15.7879 25.4457 15.6528 25.3331 15.5394C25.2205 15.4261 25.0864 15.3368 24.9389 15.277C24.7915 15.2171 24.6336 15.1878 24.4747 15.191H24.4747ZM16.7826 18.3623C16.744 18.362 16.7054 18.3636 16.667 18.3671C16.4715 18.3853 16.2836 18.4524 16.1201 18.5622C15.9567 18.6721 15.8229 18.8213 15.7307 18.9964C15.6385 19.1715 15.5909 19.3671 15.5922 19.5654C15.5934 19.7638 15.6435 19.9586 15.7378 20.1326L20.5454 29.4175C20.6133 29.5639 20.7099 29.6948 20.8293 29.8024C20.9487 29.91 21.0885 29.9919 21.2401 30.0434C21.3918 30.0949 21.5522 30.1148 21.7116 30.1019C21.8711 30.089 22.0264 30.0437 22.168 29.9686C22.3096 29.8934 22.4347 29.79 22.5357 29.6646C22.6367 29.5392 22.7115 29.3943 22.7555 29.239C22.7996 29.0836 22.812 28.9209 22.7921 28.7605C22.7721 28.6001 22.7202 28.4454 22.6395 28.3059L17.8365 19.0209C17.7382 18.8235 17.5877 18.6575 17.4017 18.5412C17.2156 18.425 17.0013 18.3629 16.7825 18.3623H16.7826ZM31.8293 18.3671C31.6181 18.3748 31.4129 18.4395 31.2349 18.5545C31.0569 18.6695 30.9125 18.8306 30.8169 19.0209L26.014 28.3059C25.935 28.4466 25.8849 28.6019 25.8667 28.7626C25.8484 28.9233 25.8624 29.086 25.9078 29.2411C25.9531 29.3962 26.029 29.5405 26.1307 29.6653C26.2325 29.7901 26.3581 29.893 26.5001 29.9677C26.6421 30.0424 26.7975 30.0875 26.9571 30.1001C27.1167 30.1128 27.2772 30.0929 27.429 30.0415C27.5808 29.9901 27.7208 29.9085 27.8406 29.8013C27.9605 29.6941 28.0577 29.5635 28.1265 29.4175L32.911 20.1326C33.0105 19.9473 33.0598 19.7387 33.0539 19.528C33.0479 19.3173 32.9869 19.112 32.8771 18.9328C32.7673 18.7536 32.6126 18.6068 32.4285 18.5075C32.2445 18.4082 32.0378 18.3597 31.8293 18.3671ZM21.4699 35.914H27.5302V36.3904H21.4699L21.4699 35.914ZM21.4699 38.7724H27.5302V39.3749H21.4699L21.4699 38.7724ZM21.4699 41.7569H27.5302V42.0554H21.4699L21.4699 41.7569Z" fill="#404B68"/>
</svg>
