<svg width="36" height="36" viewBox="0 0 36 36" fill="none" xmlns="http://www.w3.org/2000/svg">
<g clip-path="url(#clip0)">
<path d="M21.3255 3.96913C20.4941 2.74657 19.7606 1.62182 19.076 0.594875C18.9782 0.448168 18.8315 0.301461 18.6847 0.203657C18.0979 -0.187561 17.3155 0.00804776 16.9243 0.594875C16.2885 1.62182 15.555 2.69767 14.6748 3.96913C10.8115 9.64179 5.04102 18.1997 5.04102 23.0899C5.04102 26.6598 6.50808 29.8873 8.85539 32.2346C11.2027 34.533 14.4302 36.0001 18.0001 36.0001C21.57 36.0001 24.7975 34.533 27.1448 32.1857C29.4921 29.8384 30.9592 26.6109 30.9592 23.041C30.9592 18.1508 25.1887 9.64179 21.3255 3.96913ZM25.3844 30.4252C23.4772 32.3324 20.8853 33.4572 18.0001 33.4572C15.1149 33.4572 12.5231 32.2835 10.6159 30.4252C8.70868 28.5181 7.58393 25.9262 7.58393 23.041C7.58393 18.9332 13.1099 10.7665 16.7776 5.33839C17.2177 4.70266 17.6089 4.06693 18.0001 3.52901C18.3913 4.06693 18.7825 4.70266 19.2227 5.33839C22.8903 10.8154 28.4163 18.9332 28.4163 23.041C28.4163 25.9262 27.2426 28.5181 25.3844 30.4252Z" fill="#404B68"/>
<path d="M25.5795 22.1609C24.8949 22.112 24.3081 22.6499 24.2592 23.3345C24.2103 24.4104 23.868 25.4373 23.33 26.3176C22.7921 27.1978 22.0097 27.9802 21.0805 28.4693C20.4937 28.8116 20.2492 29.594 20.5915 30.1808C20.9827 30.8655 21.7652 31.0611 22.352 30.7188C23.6724 29.9852 24.7482 28.9094 25.4817 27.6868C26.2642 26.4643 26.7043 24.9972 26.7532 23.4812C26.8021 22.7966 26.2642 22.2098 25.5795 22.1609Z" fill="#404B68"/>
</g>
<defs>
<clipPath id="clip0">
<rect width="36" height="36" fill="white"/>
</clipPath>
</defs>
</svg>
