<svg width="46" height="46" viewBox="0 0 46 46" fill="none" xmlns="http://www.w3.org/2000/svg">
<path d="M5.64143 35.433C5.2748 35.433 4.97803 35.7298 4.97803 36.0964C4.97803 36.4631 5.2748 36.7598 5.64143 36.7598H39.7727C40.1394 36.7598 40.4361 36.4631 40.4361 36.0964C40.4361 35.7298 40.1394 35.433 39.7727 35.433H36.0704V15.8514H39.7727C40.1394 15.8514 40.4361 15.5546 40.4361 15.188C40.4361 14.8214 40.1394 14.5246 39.7727 14.5246H9.44242C9.38307 14.5072 9.32189 14.4949 9.25705 14.4949C9.19222 14.4949 9.13058 14.5072 9.07168 14.5246H5.64143C5.2748 14.5246 4.97803 14.8214 4.97803 15.188C4.97803 15.5546 5.2748 15.8514 5.64143 15.8514H8.59639V35.433H5.64143ZM18.905 35.433V15.8514H26.2357V35.433H18.905ZM34.7436 35.433H27.5625V15.8514H34.7436V35.433ZM9.91772 15.8514H17.5781V35.433H9.91772V15.8514Z" fill="#404B68"/>
<path d="M43.7956 40.8361H1.61848C1.25185 40.8361 0.955078 41.1329 0.955078 41.4995C0.955078 41.8662 1.25185 42.1629 1.61848 42.1629H43.7956C44.1622 42.1629 44.459 41.8662 44.459 41.4995C44.459 41.1329 44.1622 40.8361 43.7956 40.8361Z" fill="#404B68"/>
<path d="M44.3684 14.5191L23.2796 2.46918C23.0765 2.35321 22.8262 2.35275 22.6231 2.46826L1.39595 14.5182C1.07726 14.699 0.96586 15.104 1.14666 15.4227C1.26903 15.6382 1.49321 15.7587 1.72423 15.7587C1.83518 15.7587 1.9475 15.7309 2.05114 15.6724L22.9495 3.80877L43.7105 15.6711C44.0273 15.8519 44.4328 15.7427 44.6154 15.4241C44.7971 15.1063 44.6866 14.7013 44.3684 14.5191Z" fill="#404B68"/>
</svg>
