<svg width="54" height="42" viewBox="0 0 54 42" fill="none" xmlns="http://www.w3.org/2000/svg">
<path d="M53.8119 14.0715C53.6363 13.7944 53.3607 13.6316 53.069 13.6316H47.7931V6.75905C47.7931 6.14895 47.3766 5.65453 46.8633 5.65379L19.3003 5.61326L14.8444 0.323473C14.67 0.11642 14.4329 0 14.1859 0H0.931035C0.417103 0 0 0.495158 0 1.10526V40.8947C0 41.5048 0.417103 42 0.931035 42H46.7348C47.1886 42 47.5659 41.6132 47.6485 41.1025C47.6926 41.0178 47.7335 40.9301 47.7577 40.8299L53.9646 15.0404C54.0441 14.7074 53.9882 14.3485 53.8119 14.0715ZM13.8004 2.21053L18.2557 7.49958C18.4295 7.70663 18.666 7.82232 18.913 7.82305L45.931 7.86284V13.6316H7.13793C6.72207 13.6316 6.3571 13.9587 6.2429 14.4333L1.86207 32.6347V2.21053H13.8004ZM46.0713 39.7895H2.07683L7.84055 15.8421H51.835L46.0713 39.7895Z" fill="#404B68"/>
</svg>
