<svg width="48" height="48" viewBox="0 0 48 48" fill="none" xmlns="http://www.w3.org/2000/svg">
<g clip-path="url(#clip0)">
<path fillRule="evenodd" clipRule="evenodd" d="M9 24C9.828 24 10.5 23.328 10.5 22.5V10.5H35.3865L30.504 15.441C29.9145 16.0335 29.9145 16.992 30.504 17.5845C31.0935 18.1755 32.049 18.1755 32.6385 17.5845L40.0485 10.086C40.638 9.49348 40.638 8.53498 40.0485 7.94248L32.6385 0.443982C32.049 -0.147018 31.0935 -0.147018 30.504 0.443982C29.9145 1.03498 29.9145 1.99498 30.504 2.58598L35.3595 7.49998H9C8.172 7.49998 7.5 8.17198 7.5 8.99998V22.5C7.5 23.328 8.172 24 9 24Z" fill="#404B68"/>
<path fillRule="evenodd" clipRule="evenodd" d="M38.9999 23.9895C38.1719 23.9895 37.4999 24.6615 37.4999 25.4895V37.536H12.5594L17.4854 32.541C18.0749 31.9485 18.0749 30.987 17.4854 30.3945C16.8959 29.802 15.9404 29.802 15.3509 30.3945L7.9799 37.8705C7.3514 38.4645 7.3469 39.4875 7.9799 40.0815L15.3524 47.556C15.9419 48.1485 16.8974 48.1485 17.4869 47.556C18.0764 46.9635 18.0764 46.002 17.4869 45.4095L12.6824 40.5375H38.9999C39.8279 40.5375 40.4999 39.8655 40.4999 39.0375V25.491C40.4999 24.6615 39.8279 23.9895 38.9999 23.9895Z" fill="#404B68"/>
</g>
<defs>
<clipPath id="clip0">
<rect width="48" height="48" fill="white"/>
</clipPath>
</defs>
</svg>
