<svg width="84" height="27" viewBox="0 0 84 27" fill="none" xmlns="http://www.w3.org/2000/svg"><path fill-rule="evenodd" clip-rule="evenodd" d="M82.479 0.73291H64.583C63.727 0.73291 63 1.55967 63 2.57817V24.5319C63 25.5517 63.477 26.3784 64.333 26.3784H82.229C83.086 26.3784 84 25.5517 84 24.5319V2.57817C84 1.55967 83.336 0.73291 82.479 0.73291ZM71 10.5026H73.827V12.2624H73.858C74.289 11.3135 75.562 10.35 77.136 10.35C80.157 10.35 81 12.3088 81 15.937V22.7148H78V16.605C78 14.9808 77.469 13.5557 76.227 13.5557C74.719 13.5557 74 14.8025 74 16.8493V22.7148H71V10.5026ZM66 22.7148H69V10.5026H66V22.7148ZM69.375 6.22838C69.375 7.49355 68.536 8.51815 67.5 8.51815C66.464 8.51815 65.625 7.49355 65.625 6.22838C65.625 4.9632 66.464 3.9386 67.5 3.9386C68.536 3.9386 69.375 4.9632 69.375 6.22838Z" fill="#8D8D8D"></path><path d="M60 22.7366H57.2V21.4882H57.17C56.547 22.245 55.465 22.8677 53.631 22.8677C51.131 22.8677 48.978 20.8959 48.978 17.5069C48.978 14.2783 51.1 12.1231 53.725 12.1231C55.35 12.1231 56.359 12.729 56.97 13.5026H57V7.01294H60V22.7366ZM54.479 14.4817C52.764 14.4817 51.8 15.7637 51.8 17.4682C51.8 19.1737 52.764 20.5091 54.479 20.5091C56.196 20.5091 57.2 19.2082 57.2 17.4682C57.2 15.6798 56.196 14.4817 54.479 14.4817Z" fill="#8D8D8D"></path><path d="M47.661 21.0477C46.953 22.0089 45.495 22.8674 43.141 22.8674C40 22.8674 38 20.6881 38 17.2624C38 14.2193 39.812 12.1228 43.229 12.1228C46.18 12.1228 48 14.1543 48 17.7278C48 18.0853 47.945 18.4385 47.945 18.4385H40.831L40.848 18.7625C41.045 19.6661 41.696 20.7709 43.19 20.7709C44.494 20.7709 45.388 20.0361 45.792 19.4606L47.661 21.0477ZM45.113 16.4469C45.133 15.341 44.359 14.2193 43.139 14.2193C41.687 14.2193 40.912 15.408 40.831 16.4469H45.113Z" fill="#8D8D8D"></path><path d="M38 12.2541H34.5L31 16.447V7.01294H28V22.7363H31V17.4952L34.699 22.7363H38.241L34 17.0057L38 12.2541Z" fill="#8D8D8D"></path><path d="M16 12.2546H18.827V13.765H18.858C19.289 12.9506 20.562 12.1235 22.136 12.1235C25.157 12.1235 26 14.1329 26 16.9191V22.7366H23V17.4924C23 15.9495 22.469 14.8751 21.227 14.8751C19.719 14.8751 19 16.1266 19 17.7021V22.7366H16V12.2546Z" fill="#8D8D8D"></path><path d="M11 22.7366H13.9999V12.2545H11V22.7366ZM12.5009 10.4725C13.4949 10.4725 14.2999 9.62767 14.2999 8.58575C14.2999 7.54383 13.4949 6.69897 12.5009 6.69897C11.508 6.69897 10.7 7.54383 10.7 8.58575C10.7 9.62767 11.508 10.4725 12.5009 10.4725Z" fill="#8D8D8D"></path><path d="M3 7.01294H0V22.7363H9V19.5917H3V7.01294Z" fill="#8D8D8D"></path></svg>