<svg width="25" height="25" viewBox="0 0 25 25" fill="none" xmlns="http://www.w3.org/2000/svg" class="buscador-module--svg--2qhYd"><path d="M16.4073 18.2088C14.3642 19.7967 11.7931 20.5458 9.21735 20.3036C6.64164 20.0614 4.25504 18.846 2.5435 16.9051C0.831956 14.9641 -0.0758359 12.4435 0.00496588 9.85634C0.0857676 7.26923 1.14909 4.81019 2.97842 2.97993C4.80774 1.14967 7.26553 0.0858113 9.85133 0.00496841C12.4371 -0.0758745 14.9565 0.832379 16.8965 2.54479C18.8365 4.25721 20.0512 6.64502 20.2932 9.22204C20.5353 11.7991 19.7866 14.3715 18.1995 16.4156L25 23.1941L23.195 25L16.42 18.2088H16.4073ZM10.1788 17.8018C11.1803 17.8018 12.1721 17.6045 13.0974 17.221C14.0227 16.8375 14.8635 16.2754 15.5717 15.5669C16.2799 14.8583 16.8417 14.0171 17.2249 13.0913C17.6082 12.1656 17.8055 11.1733 17.8055 10.1712C17.8055 9.16919 17.6082 8.17694 17.2249 7.25115C16.8417 6.32537 16.2799 5.48418 15.5717 4.77561C14.8635 4.06705 14.0227 3.50499 13.0974 3.12151C12.1721 2.73804 11.1803 2.54067 10.1788 2.54067C8.15606 2.54067 6.21618 3.3446 4.7859 4.77561C3.35561 6.20662 2.55209 8.14749 2.55209 10.1712C2.55209 12.195 3.35561 14.1359 4.7859 15.5669C6.21618 16.9979 8.15606 17.8018 10.1788 17.8018V17.8018Z" fill="#323135"></path></svg>